<?xml version="1.0" standalone="no"?>
<!DOCTYPE svg PUBLIC "-//W3C//DTD SVG 20010904//EN"
 "http://www.w3.org/TR/2001/REC-SVG-20010904/DTD/svg10.dtd">
<svg version="1.0" xmlns="http://www.w3.org/2000/svg"
 width="606.000000pt" height="606.000000pt" viewBox="0 0 606.000000 606.000000"
 preserveAspectRatio="xMidYMid meet">
<metadata>
Created by potrace 1.11, written by Peter Selinger 2001-2013
</metadata>
<g transform="translate(0.000000,606.000000) scale(0.100000,-0.100000)"
fill="#000000" stroke="none">
<path d="M2284 4724 c-25 -34 -132 -175 -147 -194 -7 -9 -32 -42 -57 -75 -25
-33 -51 -66 -57 -73 -7 -7 -13 -17 -13 -20 0 -4 -10 -18 -22 -32 -13 -14 -43
-52 -68 -85 -24 -33 -52 -69 -62 -79 -10 -11 -18 -23 -18 -27 0 -4 -6 -14 -13
-21 -7 -7 -33 -40 -57 -73 -25 -33 -49 -65 -55 -71 -5 -6 -17 -22 -25 -34 -8
-12 -19 -28 -25 -34 -5 -6 -30 -38 -54 -71 -25 -33 -48 -61 -53 -63 -4 -2 -8
-10 -8 -17 0 -7 -3 -15 -8 -17 -4 -1 -23 -23 -42 -48 -19 -25 -40 -51 -47 -58
-7 -7 -13 -20 -13 -28 0 -12 55 -14 361 -14 275 0 363 3 373 13 6 6 39 48 72
92 102 136 189 250 194 255 3 3 25 32 49 65 25 33 47 62 51 65 31 27 50 93 30
105 -5 3 -10 14 -10 23 0 9 -7 30 -15 46 -8 15 -15 35 -15 42 0 8 -4 14 -10
14 -5 0 -10 7 -10 16 0 8 -11 39 -24 67 -13 29 -27 63 -31 77 -9 28 -51 126
-65 152 -6 10 -10 22 -10 28 0 12 -62 99 -71 100 -3 0 -15 -12 -25 -26z"/>
<path d="M4875 4420 c-4 -16 -11 -32 -16 -35 -5 -4 -9 -17 -9 -30 0 -13 -4
-26 -9 -29 -5 -3 -12 -23 -16 -43 -4 -21 -10 -42 -14 -48 -4 -5 -15 -35 -25
-65 -10 -30 -21 -64 -26 -75 -5 -11 -16 -42 -25 -70 -10 -27 -21 -59 -25 -70
-22 -52 -22 -65 0 -65 13 0 24 10 31 28 7 15 15 36 20 47 4 11 15 45 24 75 9
30 20 64 25 75 17 43 59 161 65 185 3 14 10 34 15 45 12 28 30 86 30 96 0 5
-9 9 -19 9 -13 0 -21 -9 -26 -30z"/>
<path d="M886 4265 c-27 -14 -54 -25 -59 -25 -5 0 -38 -13 -74 -30 -35 -16
-70 -30 -77 -30 -14 0 -56 -37 -56 -49 0 -18 37 -49 80 -66 25 -10 69 -28 98
-41 29 -13 59 -24 67 -24 8 0 15 -4 15 -8 0 -4 18 -13 41 -19 34 -9 41 -8 46
4 8 22 -25 44 -115 77 -42 16 -81 33 -86 38 -6 4 -16 8 -22 8 -7 0 -25 5 -39
10 -23 9 -25 12 -11 25 8 8 20 15 26 15 7 0 28 7 48 16 21 9 52 22 70 30 18 8
39 14 47 14 8 0 15 4 15 9 0 5 12 12 27 16 29 7 43 21 43 43 0 19 -30 14 -84
-13z"/>
<path d="M5070 4282 c0 -19 12 -42 22 -42 5 0 30 -9 56 -21 26 -11 56 -24 67
-29 11 -4 36 -15 57 -24 20 -9 41 -16 48 -16 6 0 18 -7 26 -15 14 -13 12 -16
-13 -25 -116 -43 -169 -65 -177 -72 -6 -4 -17 -8 -26 -8 -21 0 -62 -38 -57
-53 7 -21 51 -8 181 54 22 11 43 19 48 19 4 0 32 12 63 26 43 21 55 31 55 49
0 25 -21 41 -90 69 -74 30 -83 34 -144 61 -70 31 -116 42 -116 27z"/>
<path d="M2313 3282 c-104 -33 -143 -94 -143 -223 0 -69 4 -85 27 -122 48 -77
94 -99 205 -99 101 0 148 15 148 49 0 25 -19 30 -38 11 -8 -8 -41 -13 -86 -13
-60 0 -78 4 -96 20 -37 33 -60 94 -60 162 0 119 49 186 137 185 46 -1 73 -15
73 -37 0 -19 27 -37 47 -31 13 4 18 15 17 41 -1 46 -6 50 -78 64 -74 14 -88
13 -153 -7z"/>
<path d="M2735 3283 c-144 -44 -195 -253 -93 -377 42 -51 87 -69 173 -69 61 0
80 4 119 27 85 50 128 178 93 276 -31 87 -67 123 -144 145 -61 18 -83 18 -148
-2z m146 -52 c23 -23 34 -48 49 -110 22 -93 -17 -221 -74 -241 -64 -22 -105
-5 -137 59 -27 52 -40 184 -20 204 6 6 11 19 11 30 0 25 51 74 81 79 36 5 71
-3 90 -21z"/>
<path d="M3080 3267 c0 -8 9 -17 20 -20 19 -5 20 -14 20 -182 0 -170 -1 -177
-20 -182 -13 -3 -20 -12 -18 -22 3 -14 22 -16 128 -19 151 -3 199 8 251 60 61
62 83 156 56 244 -13 45 -55 104 -74 104 -6 0 -13 6 -15 13 -4 9 -50 13 -176
15 -146 3 -172 1 -172 -11z m249 -32 c51 -18 64 -30 79 -74 27 -78 9 -198 -37
-244 -25 -25 -38 -31 -80 -31 -27 -1 -53 3 -58 7 -9 10 -17 321 -9 343 7 18
53 18 105 -1z"/>
<path d="M3560 3267 c0 -7 9 -18 20 -25 19 -11 20 -23 20 -177 0 -154 -1 -166
-20 -177 -11 -7 -20 -21 -20 -30 0 -16 14 -18 165 -18 l165 0 0 45 c0 41 -2
45 -25 45 -18 0 -25 -5 -25 -19 0 -24 -19 -31 -80 -31 -61 0 -70 14 -70 103 0
71 5 77 63 77 22 0 36 -7 45 -21 19 -30 42 -7 42 42 0 32 -4 39 -20 39 -10 0
-23 -7 -28 -16 -6 -11 -20 -14 -48 -12 l-39 3 0 75 0 75 53 3 c48 3 53 1 62
-23 7 -20 16 -26 33 -23 18 2 23 10 25 41 l3 37 -160 0 c-123 0 -161 -3 -161
-13z"/>
<path d="M2461 2567 c-8 -11 -5 -17 14 -27 25 -13 25 -14 25 -167 0 -137 -2
-154 -17 -160 -21 -8 -34 -24 -27 -35 6 -9 168 -11 177 -2 11 11 -5 34 -23 34
-15 0 -20 11 -25 54 -10 80 -6 90 37 94 27 2 42 -2 54 -17 24 -28 34 -18 34
35 0 31 -4 44 -14 44 -8 0 -17 -7 -20 -16 -4 -11 -17 -14 -48 -12 l-43 3 0 70
0 70 53 3 c47 3 54 1 59 -17 3 -14 14 -21 29 -21 19 0 24 5 24 24 0 55 -2 56
-145 56 -98 0 -135 -3 -144 -13z"/>
<path d="M2895 2564 c-75 -39 -105 -94 -105 -193 0 -59 4 -78 28 -116 63 -106
230 -128 317 -42 62 62 81 167 46 249 -38 88 -86 118 -188 118 -42 0 -79 -6
-98 -16z m150 -30 c34 -22 55 -84 55 -162 0 -93 -23 -145 -73 -167 -37 -16
-41 -16 -71 0 -55 30 -68 67 -64 185 3 100 3 102 36 131 37 33 79 38 117 13z"/>
<path d="M3234 2568 c-4 -6 2 -19 14 -29 21 -16 22 -26 22 -169 0 -143 -1
-152 -20 -157 -11 -3 -20 -14 -20 -25 0 -17 7 -19 82 -16 56 2 83 7 86 16 2 7
-5 16 -17 19 -19 5 -21 13 -21 69 0 51 3 64 15 64 9 0 21 -11 27 -25 6 -14 14
-25 18 -25 4 0 10 -8 14 -17 7 -22 25 -50 52 -81 18 -20 28 -23 74 -20 55 3
81 25 41 35 -12 3 -44 36 -71 74 -50 69 -59 89 -39 89 23 0 42 34 47 80 7 74
-2 95 -48 114 -49 20 -245 23 -256 4z m205 -53 c8 -8 15 -31 15 -50 0 -40 -24
-69 -66 -79 l-28 -6 0 81 0 82 32 -7 c18 -4 39 -13 47 -21z"/>
<path d="M187 1876 c-53 -26 -94 -66 -102 -99 -21 -93 -22 -109 -10 -167 17
-81 47 -118 123 -151 87 -38 252 -17 252 32 0 18 -4 20 -27 14 -16 -4 -55 -9
-88 -12 -114 -9 -158 41 -158 182 0 96 19 144 67 170 60 32 146 6 146 -44 0
-16 6 -21 25 -21 23 0 25 3 25 48 0 48 -1 49 -39 60 -65 20 -160 14 -214 -12z"/>
<path d="M1174 1892 c-11 -8 -64 -117 -64 -132 0 -6 -4 -10 -10 -10 -5 0 -10
-4 -10 -9 0 -10 -44 -111 -87 -198 -24 -50 -27 -53 -64 -53 l-39 0 0 179 c0
173 1 179 21 184 12 3 19 12 17 19 -5 14 -124 24 -165 13 -30 -7 -29 -23 2
-35 23 -9 25 -14 25 -80 l0 -71 -87 3 -88 3 -3 29 c-2 17 -1 49 3 73 5 34 10
43 26 43 14 0 19 6 17 18 -3 14 -16 17 -82 20 -44 2 -85 1 -92 -2 -16 -6 -7
-36 11 -36 18 0 25 -48 25 -180 0 -132 -7 -180 -25 -180 -14 0 -27 -25 -18
-34 4 -3 46 -6 95 -6 81 0 88 2 88 20 0 13 -7 20 -19 20 -16 0 -21 9 -26 43
-4 23 -5 60 -3 82 l3 40 88 3 87 3 0 -81 c0 -77 -1 -81 -26 -90 -14 -6 -24
-16 -21 -23 3 -9 45 -13 155 -14 146 -3 152 -2 152 17 0 12 -7 20 -16 20 -11
0 -14 6 -8 23 4 12 10 24 14 27 3 3 9 13 13 23 5 14 20 17 91 17 92 0 102 -6
121 -67 5 -19 2 -23 -15 -23 -15 0 -20 -5 -18 -17 3 -15 16 -18 82 -21 44 -2
85 -1 92 2 17 6 7 36 -11 36 -13 0 -65 93 -65 117 0 7 -4 13 -10 13 -5 0 -10
4 -10 9 0 6 -17 47 -38 93 -21 46 -47 102 -57 125 -19 43 -34 56 -51 45z m19
-201 c15 -33 27 -62 27 -65 0 -3 -29 -6 -65 -6 -69 0 -70 1 -56 28 5 9 18 36
28 59 10 23 23 43 28 43 6 0 22 -27 38 -59z"/>
<path d="M2357 1876 c-89 -44 -128 -130 -112 -251 14 -113 99 -185 220 -185
49 0 75 6 111 25 80 43 106 92 106 205 0 76 -3 90 -28 132 -56 92 -191 126
-297 74z m176 -37 c65 -66 65 -273 -1 -338 -10 -10 -33 -16 -67 -16 -55 0 -81
17 -103 68 -14 34 -16 213 -2 222 6 3 10 14 10 23 0 17 25 44 51 55 23 10 97
1 112 -14z"/>
<path d="M4035 1881 c-41 -23 -69 -82 -61 -126 7 -37 68 -102 104 -111 12 -4
22 -10 22 -15 0 -5 6 -9 14 -9 20 0 56 -48 56 -74 0 -35 -36 -66 -75 -66 -37
0 -75 28 -75 55 0 9 -9 15 -25 15 -23 0 -25 -4 -25 -41 0 -58 18 -68 113 -69
65 0 85 4 110 22 52 35 67 59 67 110 0 59 -26 92 -114 144 -77 44 -96 72 -76
109 25 47 105 42 112 -6 2 -12 11 -27 21 -33 22 -14 37 6 37 51 0 28 -5 35
-36 48 -48 20 -131 18 -169 -4z"/>
<path d="M1460 1880 c-13 -9 -13 -11 0 -20 8 -5 21 -10 28 -10 18 0 18 -360 0
-360 -7 0 -20 -5 -28 -10 -27 -18 9 -30 93 -30 70 0 77 2 77 20 0 11 -7 20
-15 20 -12 0 -15 15 -15 75 0 91 13 97 55 25 17 -27 33 -50 36 -50 4 0 10 -11
13 -25 4 -14 11 -25 16 -25 6 0 10 -7 10 -15 0 -23 31 -26 265 -23 l220 3 3
53 c3 50 2 52 -22 52 -21 0 -25 -5 -28 -32 l-3 -33 -64 -3 c-45 -2 -67 1 -72
10 -10 15 -12 308 -3 332 3 9 15 16 26 16 13 0 18 6 16 18 -5 29 -188 30 -188
1 0 -6 9 -13 19 -16 27 -7 31 -30 31 -183 0 -173 -2 -180 -49 -180 -38 0 -52
11 -88 67 -10 15 -23 34 -30 41 -36 37 -35 52 1 88 32 32 36 42 36 89 0 67
-28 99 -96 109 -71 9 -227 7 -244 -4z m222 -47 c24 -22 25 -97 1 -121 -16 -16
-65 -42 -78 -42 -3 0 -5 41 -5 90 l0 90 32 0 c17 0 40 -7 50 -17z"/>
<path d="M2734 1876 c-3 -8 -4 -29 -2 -47 4 -46 35 -52 49 -10 10 29 14 31 60
31 l49 0 -2 -172 -3 -172 -25 -13 c-14 -7 -25 -18 -25 -25 0 -10 25 -13 100
-13 82 0 100 3 100 15 0 8 -10 16 -22 18 -23 3 -23 4 -23 183 l0 179 44 0 c40
0 45 -3 55 -31 7 -21 16 -30 28 -27 14 3 18 13 18 48 l0 45 -198 3 c-164 2
-198 0 -203 -12z"/>
<path d="M3163 1883 c-15 -6 -18 -82 -3 -84 6 -1 15 -2 20 -3 6 -1 16 10 23
24 10 21 21 26 60 28 l47 3 0 -165 c0 -90 -3 -171 -6 -180 -3 -9 -14 -16 -24
-16 -10 0 -20 -7 -24 -15 -8 -21 23 -27 119 -23 67 3 80 6 83 21 3 12 -3 17
-22 17 l-26 0 0 180 0 180 50 0 c46 0 50 -2 50 -24 0 -25 27 -43 42 -28 5 5 8
27 6 48 l-3 39 -190 2 c-104 1 -196 -1 -202 -4z"/>
<path d="M3580 1880 c-13 -9 -13 -11 0 -20 8 -5 20 -10 26 -10 15 0 24 -71 24
-180 0 -129 -8 -177 -32 -183 -11 -3 -18 -12 -16 -19 4 -10 42 -13 169 -13
l164 0 3 43 c3 38 1 42 -20 42 -15 0 -27 -8 -33 -22 -9 -21 -17 -23 -75 -23
l-65 0 -3 79 c-2 57 1 82 10 87 23 15 57 10 79 -12 31 -31 51 -18 47 33 -2 31
-8 44 -20 46 -11 2 -18 -3 -18 -12 0 -12 -11 -16 -50 -16 l-50 0 0 75 0 75 64
0 c59 0 65 -2 68 -22 2 -15 11 -24 26 -26 22 -3 23 0 20 40 l-3 43 -150 2
c-88 2 -156 -1 -165 -7z"/>
<path d="M4272 1883 c-15 -6 3 -33 22 -33 7 0 18 -17 26 -37 12 -34 24 -63 90
-209 11 -23 22 -54 26 -68 3 -14 9 -26 13 -26 4 0 13 -16 20 -35 7 -19 19 -35
26 -35 8 0 28 30 45 68 33 71 37 80 65 152 10 25 27 65 37 90 11 24 24 55 29
67 10 27 42 42 76 35 l23 -4 0 -178 c0 -172 -1 -178 -21 -183 -12 -3 -19 -12
-17 -19 6 -18 179 -19 185 -1 3 7 -4 16 -14 20 -10 3 -21 11 -25 17 -4 6 -8
81 -8 166 0 85 4 160 8 166 4 6 15 14 25 17 10 4 17 13 14 20 -3 9 -42 13
-143 14 -76 1 -149 0 -161 -3 -28 -5 -30 -24 -3 -31 11 -3 20 -7 20 -10 0 -5
-66 -178 -83 -215 -6 -16 -14 -28 -18 -28 -5 0 -25 43 -55 120 -10 25 -21 47
-24 50 -4 3 -9 14 -12 25 -3 11 -9 28 -13 38 -5 12 -2 17 8 17 22 0 32 20 16
31 -15 9 -155 11 -177 2z"/>
<path d="M4963 1884 c-21 -9 -15 -24 12 -34 l25 -10 0 -170 0 -170 -26 -10
c-14 -6 -24 -16 -21 -23 3 -9 117 -12 518 -12 l514 0 3 43 c3 39 1 42 -21 42
-18 0 -27 -7 -31 -25 -6 -23 -10 -25 -72 -25 l-65 0 3 88 c3 83 4 87 27 90 13
2 36 -6 52 -17 42 -31 49 -26 49 29 0 38 -4 50 -15 50 -9 0 -18 -7 -21 -15 -4
-10 -20 -15 -50 -15 l-44 0 0 75 0 75 60 0 c56 0 60 -2 66 -26 5 -18 12 -24
28 -22 16 2 22 11 24 37 2 20 -2 37 -10 42 -17 11 -289 11 -307 0 -16 -10 -6
-31 14 -31 7 0 16 -7 19 -16 9 -22 7 -317 -2 -330 -4 -6 -17 -14 -29 -18 -19
-6 -22 -3 -25 31 -2 30 -7 38 -23 38 -14 0 -21 -8 -25 -30 -5 -29 -6 -30 -73
-33 l-67 -3 0 176 c0 170 1 177 20 182 13 3 20 12 18 22 -3 13 -19 17 -82 19
-44 2 -85 1 -92 -2 -16 -6 -7 -36 11 -36 20 0 25 -35 25 -180 0 -157 -3 -171
-36 -187 -24 -11 -24 -10 -24 34 0 40 -2 44 -22 41 -17 -2 -24 -12 -28 -33 -5
-30 -6 -30 -70 -30 l-65 0 -3 173 c-2 168 -2 174 18 179 12 3 20 12 18 22 -3
13 -18 16 -83 18 -44 1 -86 -1 -92 -3z"/>
</g>
</svg>
